<svg width="75" height="24" viewBox="0 0 75 24" fill="none" xmlns="http://www.w3.org/2000/svg">
<rect x="0.193268" width="74" height="24" rx="12" fill="#DFFFEE"/>
<path d="M16.232 17H21.9426V15.772H17.6585V7.54545H16.232V17ZM23.6349 17H29.6178V15.772H25.0614V12.8775H29.2531V11.6541H25.0614V8.77344H29.5624V7.54545H23.6349V17ZM32.3592 7.54545H30.8173L34.2197 17H35.8677L39.2701 7.54545H37.7282L35.0968 15.2457H34.9906L32.3592 7.54545ZM40.7004 17H46.6834V15.772H42.1269V12.8775H46.3187V11.6541H42.1269V8.77344H46.628V7.54545H40.7004V17ZM51.9746 17H58.1976V15.7766H53.9412V15.7074L55.8201 13.7408C57.5513 11.9911 58.0453 11.1555 58.0453 10.0984C58.0453 8.57954 56.808 7.41619 55.0261 7.41619C53.258 7.41619 51.9654 8.56108 51.9654 10.2876H53.3272C53.3226 9.27202 53.9781 8.60724 54.9984 8.60724C55.9586 8.60724 56.688 9.19815 56.688 10.1399C56.688 10.9755 56.1894 11.5756 55.1738 12.6513L51.9746 15.9659V17Z" fill="#00D33B"/>
</svg>
