<svg width="49" height="48" viewBox="0 0 49 48" fill="none" xmlns="http://www.w3.org/2000/svg">
<g clip-path="url(#clip0_556_633)">
<path d="M39.5962 47.1782C29.3302 48.2739 19.0331 48.2739 8.7671 47.1782C4.67359 46.7413 1.44032 43.5081 1.00343 39.4142C-0.0922775 29.1482 -0.0922775 18.8514 1.00343 8.58545C1.44032 4.49194 4.67359 1.25867 8.7671 0.821777C19.0331 -0.273926 29.3298 -0.273926 39.5958 0.821777C43.6897 1.25867 46.923 4.49194 47.3599 8.58545C48.4556 18.8514 48.4556 29.1482 47.3599 39.4142C46.923 43.5081 43.6901 46.7413 39.5962 47.1782Z" fill="url(#paint0_linear_556_633)"/>
<path d="M44.7492 10.3217C44.3617 6.68921 41.4928 3.81995 37.86 3.43213C28.7501 2.46021 19.6132 2.46021 10.5033 3.43213C6.87086 3.81995 4.00159 6.68921 3.61378 10.3217C2.64185 19.4315 2.64185 28.5685 3.61378 37.678C4.00159 41.3108 6.87086 44.1801 10.5033 44.5675C19.6132 45.5398 28.7501 45.5398 37.8596 44.5675C41.4924 44.1801 44.3617 41.3108 44.7492 37.678C45.7214 28.5685 45.7214 19.4315 44.7492 10.3217Z" fill="url(#paint1_linear_556_633)"/>
<path d="M0.900887 38.4192C0.933846 38.751 0.967903 39.0828 1.00343 39.4146C1.44032 43.5081 4.67359 46.7413 8.76746 47.1782C19.0335 48.2739 29.3302 48.2739 39.5962 47.1782C43.6901 46.7413 46.923 43.5081 47.3599 39.4146C47.3954 39.0828 47.4295 38.751 47.4628 38.4192H0.900887Z" fill="url(#paint2_linear_556_633)"/>
<path d="M47.3599 39.4142C47.7264 35.9806 47.9696 32.5437 48.0908 29.1053L30.7983 11.8129C28.5546 9.35449 25.5304 9.12341 24.4878 9.12341H24.4863C24.4592 9.12341 24.4336 9.12341 24.4091 9.12378C24.4091 9.12378 23.9019 9.12891 23.8616 9.12891C22.5557 9.12891 18.13 9.49255 16.0419 14.1738C15.3399 15.7489 15.5079 18.4237 15.6431 20.573C15.6588 20.8264 15.676 21.0897 15.6903 21.3439C15.5823 21.4036 15.3849 21.4783 15.0743 21.4783C14.6598 21.4783 14.1702 21.3472 13.6187 21.089C13.4722 21.0201 13.3034 20.9861 13.117 20.9861C12.471 20.9861 11.6986 21.4109 11.5781 22.0441C11.5148 22.377 11.6071 22.8212 12.2304 23.2617C12.3344 23.4269 14.9934 26.0925 15.1871 26.2419C14.8938 26.8813 12.9386 30.8086 8.90369 31.4733C8.57264 31.5278 8.33643 31.8226 8.35474 32.1573C8.36024 32.257 8.38404 32.3562 8.42469 32.4521C8.52064 32.6763 8.7085 32.8821 8.98939 33.0718L23.9169 47.9989C29.1456 48.0084 34.3748 47.7356 39.5958 47.1782C43.6901 46.7413 46.923 43.5081 47.3599 39.4142Z" fill="url(#paint3_linear_556_633)"/>
<path d="M24.3776 38.5485C24.2977 38.5485 24.219 38.5463 24.1406 38.5422H24.1402C24.0904 38.5463 24.0381 38.5485 23.9857 38.5485C22.1492 38.5485 20.9707 37.7153 19.8307 36.9093C19.0437 36.3534 18.301 35.8282 17.4261 35.6825C16.9991 35.6118 16.574 35.5759 16.1631 35.5759C15.4233 35.5759 14.8396 35.6902 14.4133 35.7737C14.1544 35.8242 13.9307 35.8678 13.7611 35.8678C13.5839 35.8678 13.3916 35.8293 13.3081 35.5441C13.2352 35.2965 13.1829 35.057 13.1323 34.8256C13.0023 34.229 12.9097 33.8624 12.6599 33.824C9.74707 33.3743 8.91358 32.7605 8.72755 32.3254C8.70118 32.2632 8.68616 32.2009 8.68287 32.139C8.67335 31.9717 8.79163 31.8241 8.95716 31.797C13.4344 31.0598 15.4424 26.4836 15.5259 26.2892C15.5281 26.2837 15.5306 26.2786 15.5328 26.2731C15.8071 25.7179 15.8606 25.2356 15.6929 24.8408C15.3856 24.1165 14.3837 23.7982 13.7201 23.5876C13.5579 23.5364 13.4041 23.4877 13.2825 23.4401C11.959 22.9167 11.8488 22.3795 11.9008 22.1056C11.9894 21.639 12.613 21.3138 13.1169 21.3138C13.2554 21.3138 13.377 21.3384 13.4795 21.3864C14.075 21.6654 14.6114 21.8068 15.0747 21.8068C15.7145 21.8068 15.9935 21.5376 16.028 21.5024C16.0115 21.1992 15.9913 20.8828 15.9708 20.5562C15.8375 18.4395 15.672 15.809 16.3418 14.3075C18.349 9.80676 22.6058 9.4574 23.8623 9.4574C23.8945 9.4574 24.4134 9.45154 24.4134 9.45154L24.4878 9.45117C25.7475 9.45117 30.0135 9.80164 32.0218 14.3046C32.6916 15.8071 32.5261 18.4395 32.3924 20.5547L32.3869 20.6466C32.3683 20.9414 32.3503 21.2278 32.3353 21.5017C32.3675 21.5343 32.6242 21.7819 33.2043 21.8038H33.2051C33.646 21.787 34.1524 21.6464 34.7083 21.386C34.8717 21.3102 35.0526 21.2941 35.1756 21.2941C35.3639 21.2941 35.5547 21.3303 35.7129 21.3966L35.7224 21.4003C36.1721 21.5599 36.4669 21.8749 36.4731 22.2045C36.479 22.5143 36.2424 22.9808 35.0808 23.4397C34.9603 23.4869 34.8065 23.5356 34.6435 23.5876C33.9796 23.7982 32.9776 24.1161 32.6708 24.8401C32.5027 25.2352 32.5565 25.7168 32.8304 26.2727C32.833 26.2778 32.8355 26.283 32.8377 26.2888C32.9212 26.4829 34.9273 31.058 39.4068 31.7963C39.572 31.8234 39.6903 31.9709 39.6811 32.1383C39.6775 32.2013 39.6621 32.2643 39.6353 32.3258C39.4508 32.7579 38.6176 33.3706 35.7037 33.821C35.466 33.8573 35.3738 34.1675 35.2317 34.8182C35.1797 35.0548 35.1277 35.2874 35.0555 35.532C34.9936 35.744 34.8614 35.8433 34.6388 35.8433H34.6025C34.4483 35.8433 34.2286 35.8158 33.9507 35.7609C33.4574 35.6646 32.904 35.5756 32.2005 35.5756C31.7897 35.5756 31.3645 35.6115 30.9371 35.6821C30.063 35.8279 29.3207 36.3519 28.5351 36.9075C27.3933 37.7153 26.2145 38.5485 24.3776 38.5485Z" fill="white"/>
<path d="M24.4878 9.77966C25.6802 9.78003 29.7869 10.0997 31.7223 14.4386C32.3591 15.8668 32.1962 18.4552 32.0651 20.5345C32.0442 20.8641 32.0241 21.1835 32.0079 21.4893L32.0006 21.6204L32.0885 21.7181C32.1237 21.7577 32.4551 22.1038 33.1915 22.1323L33.204 22.1327L33.2161 22.1323C33.7031 22.114 34.2517 21.9628 34.8479 21.6834C34.9354 21.6423 35.0523 21.6226 35.1757 21.6226C35.3167 21.6226 35.4661 21.6489 35.5895 21.7009L35.6082 21.7083C35.9205 21.8178 36.1414 22.0243 36.1454 22.2111C36.1469 22.3173 36.0678 22.697 34.9603 23.1346C34.8519 23.1775 34.7095 23.2225 34.5443 23.2749C33.824 23.5038 32.7352 23.8491 32.3687 24.7119C32.1621 25.1993 32.2181 25.7732 32.536 26.4181C32.6671 26.7235 34.7238 31.3579 39.3534 32.1207C39.3519 32.142 39.3468 32.1665 39.3344 32.1947C39.2556 32.3796 38.7568 33.0176 35.6539 33.4966C35.168 33.5717 35.049 34.1155 34.9109 34.7483C34.8615 34.9746 34.8106 35.2031 34.7406 35.4397C34.7197 35.5111 34.7157 35.5155 34.6388 35.5155C34.6282 35.5155 34.6165 35.5155 34.6025 35.5155C34.4649 35.5155 34.2557 35.4869 34.0133 35.4393C33.5735 35.3533 32.9703 35.2478 32.2006 35.2478C31.7706 35.2478 31.3275 35.2852 30.8837 35.3588C29.9341 35.517 29.1614 36.0634 28.3433 36.6412C27.245 37.418 26.1097 38.2203 24.3776 38.2203C24.3021 38.2203 24.2282 38.2181 24.1542 38.2145L24.1348 38.2134L24.115 38.2152C24.0725 38.2189 24.0297 38.2203 23.9857 38.2203C22.2539 38.2203 21.1179 37.418 20.02 36.6416C19.2023 36.0634 18.4292 35.517 17.48 35.3588C17.0358 35.2852 16.593 35.2478 16.1631 35.2478C15.3933 35.2478 14.7902 35.3654 14.35 35.4514C14.1079 35.499 13.8984 35.5393 13.7611 35.5393C13.6487 35.5393 13.6465 35.5331 13.6227 35.4518C13.5531 35.2152 13.5022 34.9808 13.4528 34.7549C13.3147 34.1217 13.195 33.5746 12.7097 33.4995C9.60645 33.0205 9.10804 32.3807 9.0293 32.1962C9.01685 32.1676 9.01173 32.1427 9.01063 32.1211C13.6399 31.3583 15.6965 26.7246 15.8273 26.4185C16.1455 25.7728 16.2019 25.1993 15.9954 24.7126C15.6292 23.8491 14.54 23.5038 13.8193 23.2745C13.6542 23.2225 13.5117 23.1775 13.4033 23.1343C12.4677 22.7648 12.1802 22.3927 12.2234 22.1671C12.2728 21.9067 12.7236 21.6423 13.1173 21.6423C13.2059 21.6423 13.2832 21.6566 13.3403 21.6834C13.9797 21.9825 14.5635 22.1349 15.0747 22.1349C15.8793 22.1349 16.2378 21.7603 16.2759 21.7178L16.363 21.6204L16.3557 21.4896C16.3396 21.1846 16.3195 20.8652 16.2986 20.5356C16.1675 18.4563 16.0049 15.8701 16.6417 14.4412C18.5695 10.1184 22.656 9.78516 23.8627 9.78516C23.8923 9.78516 24.4168 9.78003 24.4168 9.78003C24.4391 9.78003 24.4625 9.77966 24.4878 9.77966ZM24.4878 9.12341H24.4863C24.4592 9.12341 24.4336 9.12341 24.4091 9.12378C24.4091 9.12378 23.9019 9.12891 23.8616 9.12891C22.5557 9.12891 18.13 9.49255 16.0419 14.1742C15.3399 15.7489 15.5079 18.4237 15.6431 20.573C15.6588 20.8268 15.676 21.0897 15.6903 21.3439C15.5823 21.4039 15.3849 21.4783 15.0743 21.4783C14.6598 21.4783 14.1702 21.3475 13.6187 21.089C13.4722 21.0205 13.3034 20.9861 13.117 20.9861C12.471 20.9861 11.6986 21.4109 11.5781 22.0444C11.4913 22.5004 11.6957 23.1658 13.1616 23.7448C13.2942 23.7971 13.4531 23.8477 13.6212 23.9008C14.2269 24.093 15.1425 24.3834 15.3908 24.9686C15.5193 25.2719 15.468 25.6622 15.2384 26.1281C15.2337 26.1387 15.2285 26.1493 15.2238 26.1599C15.1432 26.3474 13.2056 30.7647 8.90369 31.4729C8.57264 31.5275 8.33643 31.8226 8.35474 32.1574C8.36024 32.257 8.38404 32.3562 8.42469 32.4522C8.74732 33.2069 10.1096 33.7603 12.5896 34.1451C12.6724 34.2572 12.7584 34.6531 12.8115 34.8944C12.8632 35.1325 12.9166 35.3778 12.9928 35.6371C13.0675 35.8916 13.2616 36.1959 13.7607 36.1959C13.9625 36.1959 14.2006 36.1494 14.476 36.0952C14.889 36.0147 15.4548 35.9041 16.1631 35.9041C16.5557 35.9041 16.9629 35.9381 17.3727 36.0062C18.1729 36.1395 18.8529 36.62 19.6403 37.1766C20.7678 37.9739 22.0448 38.8766 23.9857 38.8766C24.0388 38.8766 24.0927 38.8748 24.1454 38.8707C24.2087 38.8737 24.2904 38.8766 24.3772 38.8766C26.3189 38.8766 27.5955 37.9739 28.7223 37.177C29.5115 36.6196 30.1908 36.1392 30.991 36.0062C31.4004 35.9381 31.8076 35.9041 32.2006 35.9041C32.8762 35.9041 33.4105 35.9901 33.8877 36.0831C34.1865 36.1417 34.4268 36.1714 34.6025 36.1714L34.6209 36.1718H34.6388C35.0072 36.1718 35.2676 35.9769 35.3705 35.6232C35.4456 35.3698 35.499 35.1306 35.5518 34.8886C35.6045 34.648 35.6902 34.2535 35.773 34.1422C38.2533 33.757 39.6152 33.2047 39.9375 32.4533C39.9789 32.3569 40.0027 32.257 40.0086 32.1566C40.0272 31.8219 39.7907 31.5271 39.46 31.4725C35.1559 30.7632 33.2197 26.347 33.1392 26.1595C33.1348 26.1489 33.13 26.1383 33.1245 26.1277C32.8949 25.6619 32.844 25.2719 32.9725 24.9686C33.2208 24.3834 34.136 24.0927 34.7417 23.9008C34.9109 23.8469 35.0702 23.7964 35.2013 23.7448C36.2743 23.321 36.8126 22.8003 36.8013 22.1979C36.7921 21.7244 36.4233 21.3021 35.8374 21.093L35.8356 21.0923C35.6386 21.0106 35.4045 20.9659 35.1753 20.9659C35.0189 20.9659 34.7864 20.9872 34.5696 21.0886C34.0591 21.3278 33.6002 21.4578 33.2051 21.4757C32.9429 21.4633 32.7711 21.3973 32.6733 21.3435C32.6854 21.1252 32.6997 20.9008 32.7144 20.666L32.7199 20.5748C32.8557 18.4241 33.0242 15.7471 32.3214 14.1709C30.2326 9.48779 25.7974 9.12341 24.4878 9.12341Z" fill="#030303"/>
</g>
<defs>
<linearGradient id="paint0_linear_556_633" x1="16.1186" y1="6.74871" x2="28.2592" y2="32.7239" gradientUnits="userSpaceOnUse">
<stop stop-color="#FFFC00"/>
<stop offset="1" stop-color="#FFE600"/>
</linearGradient>
<linearGradient id="paint1_linear_556_633" x1="34.3331" y1="29.4456" x2="-35.4046" y2="-7.96427" gradientUnits="userSpaceOnUse">
<stop stop-color="#FFE600" stop-opacity="0"/>
<stop offset="1" stop-color="#FFCE00"/>
</linearGradient>
<linearGradient id="paint2_linear_556_633" x1="24.1817" y1="41.0047" x2="24.1817" y2="47.2943" gradientUnits="userSpaceOnUse">
<stop stop-color="#FFE600" stop-opacity="0"/>
<stop offset="1" stop-color="#FFCE00"/>
</linearGradient>
<linearGradient id="paint3_linear_556_633" x1="36.2369" y1="45.0502" x2="26.9198" y2="28.3922" gradientUnits="userSpaceOnUse">
<stop stop-color="#FFE600" stop-opacity="0"/>
<stop offset="1" stop-color="#FFCE00"/>
</linearGradient>
<clipPath id="clip0_556_633">
<rect width="48" height="48" fill="white" transform="translate(0.181648)"/>
</clipPath>
</defs>
</svg>
