<svg width="86" height="86" viewBox="0 0 86 86" fill="none" xmlns="http://www.w3.org/2000/svg">
<g filter="url(#filter0_d_556_551)">
<path d="M73.6144 30.5477C76.8331 45.8995 66.9975 60.9535 51.6456 64.1722C36.2937 67.3908 21.2397 57.5552 18.0211 42.2033C14.8024 26.8514 24.638 11.7975 39.9899 8.57879C55.3418 5.36013 70.3958 15.1958 73.6144 30.5477Z" fill="#4A7AFF"/>
<path d="M73.6144 30.5477C76.8331 45.8995 66.9975 60.9535 51.6456 64.1722C36.2937 67.3908 21.2397 57.5552 18.0211 42.2033C14.8024 26.8514 24.638 11.7975 39.9899 8.57879C55.3418 5.36013 70.3958 15.1958 73.6144 30.5477Z" fill="#4A7AFF"/>
<path d="M73.6144 30.5476C73.2587 28.8511 72.7579 27.2225 72.1288 25.671L60.4256 18.0242L48.9016 36.2753L30.6546 40.2347L38.2605 45.2044L35.3822 45.8437L40.6761 49.3025L39.2128 51.6199L29.5718 52.0565L48.8027 64.6212C49.7472 64.5201 50.6959 64.3712 51.6456 64.1721C66.9975 60.9535 76.8331 45.8995 73.6144 30.5476Z" fill="#0053BF"/>
<path d="M42.064 53.0377C56.1863 50.0769 61.4561 36.7577 59.3291 26.6126C59.2594 26.2801 59.1833 25.9511 59.099 25.6252C60.3707 24.2268 61.3901 22.6014 62.0956 20.8467C60.8478 21.7463 59.4539 22.4685 57.9395 22.9795C59.3258 21.697 60.2273 19.9379 60.4257 18.0246C59.1261 19.2155 57.6178 20.199 55.9413 20.9104C54.2271 19.7121 52.0362 19.1969 49.8286 19.6597C45.588 20.5488 42.8704 24.7083 43.759 28.9467C43.8853 29.5494 44.0756 30.121 44.325 30.6559C37.8773 31.6725 31.5782 29.8033 26.8179 25.952C26.3958 27.2249 26.2926 28.6227 26.5874 30.0288C27.1458 32.6924 28.9945 34.7601 31.3438 35.7035C30.0764 35.9289 28.8204 35.8305 27.6652 35.4718C27.6703 35.5044 27.6771 35.5366 27.6841 35.5701C28.4638 39.289 31.7613 41.8384 35.4216 41.8056C34.8137 42.1164 34.1549 42.3532 33.4542 42.5001C32.9597 42.6038 32.4684 42.6555 31.9819 42.6645C33.599 45.5095 36.8985 47.1353 40.2726 46.4934C38.0759 49.1037 35.0232 51.0247 31.426 51.7789C30.8068 51.9087 30.1882 52.0017 29.5722 52.0564C33.4266 53.5216 37.7276 53.9469 42.064 53.0377Z" fill="white"/>
<path d="M62.0956 20.8466C60.8478 21.7463 59.4538 22.468 57.9395 22.9795C59.3258 21.697 60.2272 19.9374 60.4257 18.0246C59.1261 19.2154 57.6178 20.1989 55.9413 20.91C54.2272 19.712 52.0363 19.1968 49.8286 19.6597C46.4885 20.36 44.0948 23.089 43.6625 26.2876L48.751 50.558C57.8216 45.4496 61.0788 34.958 59.3291 26.6126C59.2594 26.28 59.1833 25.951 59.0991 25.6251C60.3707 24.2267 61.3902 22.6014 62.0956 20.8466Z" fill="#DCE1EB"/>
</g>
<defs>
<filter id="filter0_d_556_551" x="0.410919" y="0.968689" width="84.8137" height="84.8136" filterUnits="userSpaceOnUse" color-interpolation-filters="sRGB">
<feFlood flood-opacity="0" result="BackgroundImageFix"/>
<feColorMatrix in="SourceAlpha" type="matrix" values="0 0 0 0 0 0 0 0 0 0 0 0 0 0 0 0 0 0 127 0" result="hardAlpha"/>
<feOffset dx="-3" dy="7"/>
<feGaussianBlur stdDeviation="7"/>
<feComposite in2="hardAlpha" operator="out"/>
<feColorMatrix type="matrix" values="0 0 0 0 0.290196 0 0 0 0 0.478431 0 0 0 0 1 0 0 0 0.36 0"/>
<feBlend mode="normal" in2="BackgroundImageFix" result="effect1_dropShadow_556_551"/>
<feBlend mode="normal" in="SourceGraphic" in2="effect1_dropShadow_556_551" result="shape"/>
</filter>
</defs>
</svg>
