<svg width="49" height="48" viewBox="0 0 49 48" fill="none" xmlns="http://www.w3.org/2000/svg">
<g clip-path="url(#clip0_556_613)">
<path d="M24.1817 48.0001C37.4366 48.0001 48.1817 37.2549 48.1817 24.0001C48.1817 10.7452 37.4366 0 24.1817 0C10.9268 0 0.181641 10.7452 0.181641 24.0001C0.181641 37.2549 10.9268 48.0001 24.1817 48.0001Z" fill="#D42428"/>
<path d="M41.1515 7.02686C50.5241 16.4003 50.5249 31.5968 41.1515 40.9702C31.7789 50.3428 16.5815 50.3432 7.20808 40.9702L41.1515 7.02686Z" fill="#CC202D"/>
<path d="M47.6992 28.8068L35.8208 16.9288L21.8115 18.5239L13.3375 31.643L29.1719 47.477C38.4816 45.5076 45.8006 38.1435 47.6992 28.8068Z" fill="#BA202E"/>
<path d="M36.741 19.3687C36.741 17.3568 35.1111 15.726 33.1003 15.726H16.0191C14.0087 15.726 12.3791 17.3572 12.3791 19.3687V29.1366C12.3791 31.1485 14.009 32.7793 16.0191 32.7793H33.1C35.1112 32.7793 36.7407 31.1481 36.7407 29.1366V19.3687H36.741ZM22.1231 28.3734V19.199L29.0805 23.7864L22.1231 28.3734Z" fill="white"/>
</g>
<defs>
<clipPath id="clip0_556_613">
<rect width="48" height="48" fill="white" transform="translate(0.181641)"/>
</clipPath>
</defs>
</svg>
