<svg width="81" height="81" viewBox="0 0 81 81" fill="none" xmlns="http://www.w3.org/2000/svg">
<g clip-path="url(#clip0_553_305)">
<path d="M37.1776 42.9946C38.4695 43.9282 40.0581 44.4787 41.7757 44.4787H56.4687V51.603L65.7825 44.4787H69.8005C74.132 44.4787 77.6433 40.9782 77.6433 36.6599V8.72061C77.6434 4.40238 74.1321 0.901855 69.8005 0.901855H41.7756C37.4442 0.901855 33.9328 4.40238 33.9328 8.72061V42.9946H37.1776Z" fill="#F7F3F1"/>
<path d="M69.8006 0.901855H63.083C67.4146 0.901855 70.9259 4.40254 70.9259 8.72061V36.6599C70.9259 40.9782 67.4146 44.4787 63.0831 44.4787H59.0651L56.4687 46.4647V51.603L65.7825 44.4787H69.8006C74.132 44.4787 77.6433 40.9782 77.6433 36.6599V8.72061C77.6435 4.40254 74.132 0.901855 69.8006 0.901855V0.901855Z" fill="#EFE7E3"/>
<path d="M49.7453 33.0182L50.5537 33.6726C51.8353 34.71 53.4344 35.2761 55.0831 35.2761H66.5587C67.6465 35.2761 68.5225 34.3686 68.4706 33.2693C68.4222 32.2398 68.4729 22.8637 68.4729 21.8066C68.4729 20.7496 67.6159 19.8924 66.5587 19.8924L58.7771 19.8689L59.7299 17.6125C60.7198 15.2679 60.5598 12.5955 59.297 10.3858C58.6125 9.32761 56.95 9.71699 56.9177 11.0178C56.9177 13.0413 56.1788 14.9951 54.8401 16.5123L49.8781 22.127H48.0692V33.0181H49.7453V33.0182Z" fill="#FFDF6B"/>
<path d="M48.9704 34.7449H43.7312C43.3849 34.7449 43.104 34.4641 43.104 34.1177V20.7618C43.104 20.4155 43.3848 20.1346 43.7312 20.1346H48.9704C49.3167 20.1346 49.5976 20.4154 49.5976 20.7618V34.1177C49.5974 34.464 49.3167 34.7449 48.9704 34.7449Z" fill="#8EE6F3"/>
<path d="M37.189 56.9963V28.798C37.189 25.3928 34.42 22.6322 31.0042 22.6322H8.90421C5.48852 22.6322 2.71942 25.3928 2.71942 28.798V50.8305C2.71942 54.2357 5.48835 56.9963 8.90421 56.9963H21.0451V62.6671L28.3898 56.9963H37.189Z" fill="#23049D"/>
<path d="M31.0047 22.6322H22.2467C25.6624 22.6322 28.4315 25.3928 28.4315 28.798V56.9963H37.1895V28.798C37.1893 25.3928 34.4204 22.6322 31.0047 22.6322Z" fill="#23049D"/>
<path d="M28.0592 41.6259H23.6145L24.1014 38.6809H28.0592C29.6166 38.6809 29.6166 36.2664 28.0592 36.2664H24.5006L25.1654 32.2457C25.4194 30.7094 23.0374 30.3154 22.7833 31.8519L22.0534 36.2664H19.1411L19.8059 32.2457C20.0599 30.7094 17.6782 30.3152 17.4237 31.8519L16.6939 36.2664H11.85C10.2926 36.2664 10.2926 38.6809 11.85 38.6809H16.2947L15.8078 41.6259H11.85C10.2926 41.6259 10.2926 44.0404 11.85 44.0404H15.4086L14.7438 48.0612C14.4924 49.5812 16.8715 49.9936 17.1259 48.4549L17.8558 44.0404H20.7681L20.1033 48.0612C19.8519 49.5812 22.231 49.9936 22.4855 48.4549L23.2153 44.0404H28.0592C29.6166 44.0404 29.6166 41.6259 28.0592 41.6259ZM21.1673 41.6259H18.2551L18.742 38.6809H21.6544L21.1673 41.6259Z" fill="#F7F3F1"/>
<path d="M49.153 52.4911H33.4698C31.0458 52.4911 29.0807 54.45 29.0807 56.8666V72.5019C29.0807 74.9184 31.0458 76.8774 33.4698 76.8774H42.0855V80.9019L47.2977 76.8776H49.153C51.577 76.8776 53.542 74.9186 53.542 72.502V56.8668C53.542 54.4502 51.577 52.4911 49.153 52.4911Z" fill="#AA2EE6"/>
<path d="M49.1529 52.4911H42.3924C44.8164 52.4911 46.7814 54.45 46.7814 56.8666V72.502C46.7814 74.9186 44.8164 76.8776 42.3924 76.8776H42.0854V80.9019L47.2977 76.8776H49.1529C51.5769 76.8776 53.542 74.9186 53.542 72.502V56.8666C53.542 54.4502 51.5769 52.4911 49.1529 52.4911Z" fill="#AA2EE6"/>
<path d="M41.3112 69.9968C45.0852 67.9962 47.0404 66.2938 47.0404 63.6566C47.0404 60.0189 42.5842 59.1094 41.3112 61.8378C39.856 59.0187 35.5819 60.0191 35.5819 63.6566C35.5819 66.2938 37.5372 67.996 41.3112 69.9968Z" fill="#F7F3F1"/>
</g>
<defs>
<clipPath id="clip0_553_305">
<rect width="80" height="80" fill="white" transform="translate(0.181641 0.901855)"/>
</clipPath>
</defs>
</svg>
