<svg width="81" height="81" viewBox="0 0 81 81" fill="none" xmlns="http://www.w3.org/2000/svg">
<g clip-path="url(#clip0_553_316)">
<path d="M72.0199 41.7878L64.5556 39.4986L62.2577 46.9908L60.9742 43.5037C59.9542 40.7326 57.6882 38.6042 54.859 37.7592L47.4892 35.5581H40.2132H32.9373L25.5673 37.7592C22.7379 38.6042 20.4721 40.7328 19.4521 43.5037L18.1685 46.9908L15.8707 39.4986L8.4065 41.7878L13.7093 59.0784L13.7207 59.075L13.7171 59.0847L13.8165 59.569C14.7471 64.1064 20.9937 64.6887 22.7471 60.4017L25.8384 52.8436V77.6508H54.5884V52.8436L57.6795 60.4017C59.4329 64.6887 65.6795 64.1064 66.6101 59.569L66.7095 59.0847L66.7059 59.075L66.7173 59.0784L72.0199 41.7878Z" fill="#23049D"/>
<path d="M65.2158 31.3338C65.1761 30.8134 65.5397 30.3486 66.0542 30.2619C66.6182 30.1669 67.1483 30.5591 67.2224 31.1263C67.2224 31.1263 67.3213 32.2242 67.3914 32.9692C67.3958 33.0148 67.4038 33.0595 67.4135 33.1036C67.4796 33.4056 67.6678 33.6663 67.9338 33.8256L65.5533 35.5239L65.3778 33.453L65.2158 31.3338Z" fill="#FFD3B3"/>
<path d="M58.0252 14.354H70.5252V31.5415H58.0252V14.354Z" fill="#EDEFF1"/>
<path d="M58.9627 16.0728H69.5877V17.0103H58.9627V16.0728Z" fill="#D3D3D3"/>
<path d="M58.9627 18.4165H69.5877V19.354H58.9627V18.4165Z" fill="#D3D3D3"/>
<path d="M58.9627 20.7603H69.5877V21.6977H58.9627V20.7603Z" fill="#D3D3D3"/>
<path d="M58.9627 23.104H69.5877V24.0415H58.9627V23.104Z" fill="#D3D3D3"/>
<path d="M58.9627 25.4478H69.5877V26.3853H58.9627V25.4478Z" fill="#D3D3D3"/>
<path d="M65.8331 36.9545V36.9542C65.6273 36.7389 65.6062 36.47 65.5859 36.203L65.5412 35.5259L67.9279 33.8267C67.974 33.8542 68.0247 33.8792 68.0751 33.9003L68.0911 33.9061C68.4126 34.0406 68.7801 34.0114 69.0764 33.8276L70.0926 33.1975C70.4783 32.9558 70.6809 32.5059 70.6062 32.057L69.9223 29.6776L69.2083 29.6239L69.04 30.0026C68.8478 30.4353 68.3556 30.6478 67.909 30.4912C67.4204 30.32 67.1736 29.7758 67.3664 29.2951L67.6358 28.6242C67.8543 28.0798 68.3912 27.7314 68.9773 27.7534L70.4542 27.8091C71.0097 27.83 71.499 28.1798 71.6987 28.6986L72.0058 29.4966L72.6928 31.5389L74.5714 33.2083C74.939 33.535 75.0825 34.0458 74.9387 34.5161L73.6712 38.6614C73.5233 39.1451 73.1987 39.5555 72.7618 39.8106L71.9445 40.288C71.6715 40.4475 71.4686 40.7039 71.3761 41.0062L71.2128 41.5403L65.5689 39.8094L66.0183 38.307C66.1578 37.8509 66.0715 37.3601 65.8331 36.9545Z" fill="#FFD3B3"/>
<path d="M70.9904 37.2504L69.0646 35.6221C68.5889 35.2196 68.3901 34.5865 68.5359 33.9873C68.7246 33.9823 68.9114 33.9296 69.0762 33.8275L70.0925 33.1973C70.4781 32.9556 70.6807 32.5057 70.606 32.0568L70.3481 31.1592H72.5651L72.6928 31.5386L74.5714 33.2079C74.939 33.5346 75.0825 34.0454 74.9387 34.5157L74.6468 35.4704L73.7285 35.7004C73.6348 35.7225 73.5648 35.7953 73.5367 35.8873L73.2531 36.8151C73.1104 37.2817 72.7156 37.612 72.2278 37.6242L72.0857 37.6371C71.9085 37.6412 71.7346 37.617 71.567 37.5657C71.3534 37.5009 71.1601 37.3945 70.9904 37.2504Z" fill="#FCB98B"/>
<path d="M74.9382 34.5165L74.7583 35.1046L73.7043 35.3526C73.4794 35.4055 73.2997 35.5738 73.2322 35.7946L72.9485 36.7224C72.8535 37.0329 72.5705 37.2479 72.246 37.256L72.0752 37.2602C71.7666 37.2671 71.4672 37.1624 71.2324 36.963L69.3039 35.3344C68.9194 35.0091 68.766 34.4874 68.913 34.0063L69.3925 32.438C69.5444 31.9413 69.9855 31.591 70.4958 31.5524C70.5272 31.5488 70.5577 31.5477 70.5893 31.548L72.6922 31.5388L74.5711 33.2088C74.9386 33.5343 75.0819 34.0462 74.9382 34.5165Z" fill="#FFD3B3"/>
<path d="M69.7934 35.8L69.3452 35.6629L70.1834 32.9212C70.3045 32.525 70.6639 32.2443 71.0778 32.2228L72.02 32.1737L72.0444 32.6418L71.1022 32.6909C70.8844 32.7023 70.6953 32.8498 70.6317 33.0582L69.7934 35.8Z" fill="#FCB98B"/>
<path d="M71.1365 36.9995L70.6882 36.8625L71.5079 34.1816C71.6182 33.821 71.9176 33.5581 72.2893 33.4955L72.9387 33.3861L73.0165 33.8483L72.3671 33.9577C72.1717 33.9906 72.0142 34.1289 71.9562 34.3186L71.1365 36.9995Z" fill="#FCB98B"/>
<path d="M67.6726 40.4873L68.1505 38.9226L68.5986 39.0595L68.1207 40.6242L67.6726 40.4873Z" fill="#FCB98B"/>
<path d="M70.8538 14.8533L73.7116 11.9954L74.5953 12.8791L71.7375 15.7369L70.8538 14.8533Z" fill="#23049D"/>
<path d="M74.9002 14.6665H73.6502V12.9478H71.9314V11.6978H74.9002V14.6665Z" fill="#23049D"/>
<path d="M70.8549 23.5516L71.7387 22.6679L74.5965 25.5257L73.7128 26.4095L70.8549 23.5516Z" fill="#23049D"/>
<path d="M74.9002 26.6978H71.9314V25.4478H73.6502V23.729H74.9002V26.6978Z" fill="#23049D"/>
<path d="M53.9373 12.88L54.8209 11.9964L57.6787 14.8542L56.7951 15.7378L53.9373 12.88Z" fill="#23049D"/>
<path d="M54.9002 14.6665H53.6502V11.6978H56.6189V12.9478H54.9002V14.6665Z" fill="#23049D"/>
<path d="M53.9342 25.52L56.792 22.6622L57.6758 23.5459L54.818 26.4038L53.9342 25.52Z" fill="#23049D"/>
<path d="M56.6189 26.6978H53.6502V23.729H54.9002V25.4478H56.6189V26.6978Z" fill="#23049D"/>
<path d="M47.4885 35.5581H40.2126H32.9367L28.2404 36.9606C29.1212 42.0306 34.1456 45.9165 40.2124 45.9165C46.2793 45.9165 51.3037 42.0306 52.1845 36.9606L47.4885 35.5581Z" fill="#EDEFF1"/>
<path d="M15.2099 31.3338C15.2496 30.8134 14.886 30.3486 14.3714 30.2619C13.8075 30.1669 13.2774 30.5591 13.2033 31.1263C13.2033 31.1263 13.1044 32.2242 13.0342 32.9692C13.0299 33.0148 13.0219 33.0595 13.0122 33.1036C12.9461 33.4056 12.7578 33.6663 12.4919 33.8256L14.8724 35.5239L15.0478 33.453L15.2099 31.3338Z" fill="#FFD3B3"/>
<path d="M9.90018 14.354H22.4002V31.5415H9.90018V14.354Z" fill="#EDEFF1"/>
<path d="M10.8377 16.0728H21.4627V17.0103H10.8377V16.0728Z" fill="#D3D3D3"/>
<path d="M10.8377 18.4165H21.4627V19.354H10.8377V18.4165Z" fill="#D3D3D3"/>
<path d="M10.8377 20.7603H21.4627V21.6977H10.8377V20.7603Z" fill="#D3D3D3"/>
<path d="M10.8377 23.104H21.4627V24.0415H10.8377V23.104Z" fill="#D3D3D3"/>
<path d="M10.8377 25.4478H21.4627V26.3853H10.8377V25.4478Z" fill="#D3D3D3"/>
<path d="M14.5925 36.9545V36.9542C14.7983 36.7389 14.8194 36.47 14.8397 36.203L14.8844 35.5259L12.4977 33.8267C12.4516 33.8542 12.401 33.8792 12.3505 33.9003L12.3345 33.9061C12.013 34.0406 11.6455 34.0114 11.3492 33.8276L10.333 33.1975C9.94736 32.9558 9.7447 32.5059 9.81939 32.057L10.5033 29.6776L11.2174 29.6239L11.3856 30.0026C11.5778 30.4353 12.07 30.6478 12.5166 30.4912C13.0052 30.32 13.252 29.7758 13.0592 29.2951L12.7899 28.6242C12.5713 28.0798 12.0344 27.7314 11.4483 27.7534L9.97142 27.8091C9.41595 27.83 8.92658 28.1798 8.72689 28.6986L8.41986 29.4966L7.73283 31.5389L5.85423 33.2083C5.48657 33.535 5.34314 34.0458 5.48689 34.5161L6.75439 38.6614C6.90236 39.1451 7.22689 39.5555 7.66376 39.8106L8.48111 40.288C8.75408 40.4475 8.95704 40.7039 9.04954 41.0062L9.21282 41.5403L14.8567 39.8094L14.4074 38.307C14.2678 37.8509 14.3541 37.3601 14.5925 36.9545Z" fill="#FFD3B3"/>
<path d="M9.43504 37.2504L11.3608 35.6221C11.8366 35.2196 12.0354 34.5865 11.8896 33.9873C11.7008 33.9823 11.5141 33.9296 11.3493 33.8275L10.333 33.1973C9.94739 32.9556 9.74473 32.5057 9.81942 32.0568L10.0774 31.1592H7.86036L7.7327 31.5386L5.85411 33.2079C5.48645 33.5346 5.34302 34.0454 5.48677 34.5157L5.77864 35.4704L6.69692 35.7004C6.79067 35.7225 6.86067 35.7953 6.8888 35.8873L7.17239 36.8151C7.31505 37.2817 7.70989 37.612 8.1977 37.6242L8.33973 37.6371C8.51692 37.6412 8.69083 37.617 8.85848 37.5657C9.07208 37.5009 9.26536 37.3945 9.43504 37.2504Z" fill="#FCB98B"/>
<path d="M5.48794 34.5165L5.66778 35.1046L6.72185 35.3526C6.94669 35.4055 7.12638 35.5738 7.19388 35.7946L7.47763 36.7224C7.57263 37.0329 7.8556 37.2479 8.18013 37.256L8.35091 37.2602C8.6595 37.2671 8.95888 37.1624 9.19372 36.963L11.1222 35.3344C11.5067 35.0091 11.6601 34.4874 11.5131 34.0063L11.0336 32.438C10.8817 31.9413 10.4406 31.591 9.93028 31.5524C9.89888 31.5488 9.86841 31.5477 9.83685 31.548L7.73388 31.5388L5.85497 33.2088C5.48747 33.5343 5.34419 34.0462 5.48794 34.5165Z" fill="#FFD3B3"/>
<path d="M10.6325 35.8L9.79419 33.0581C9.7306 32.8497 9.54153 32.702 9.32372 32.6908L8.38153 32.6417L8.40591 32.1736L9.34809 32.2226C9.76185 32.2442 10.1212 32.5248 10.2425 32.9211L11.0808 35.6628L10.6325 35.8Z" fill="#FCB98B"/>
<path d="M9.2893 36.9995L8.46961 34.3186C8.4118 34.1289 8.2543 33.9906 8.05868 33.9577L7.4093 33.8483L7.48711 33.3861L8.13649 33.4955C8.50836 33.5581 8.80774 33.821 8.9179 34.1816L9.73758 36.8625L9.2893 36.9995Z" fill="#FCB98B"/>
<path d="M11.7695 39.0475L12.2176 38.9106L12.6913 40.4614L12.2431 40.5983L11.7695 39.0475Z" fill="#FCB98B"/>
<path d="M18.1677 46.9917L21.2751 57.1128L21.2804 54.4164C21.281 54.1037 21.2348 53.7928 21.143 53.4938L18.7029 45.5376L18.1677 46.9917Z" fill="#466089"/>
<path d="M62.2578 46.9917L59.1504 57.1128L59.1451 54.4164C59.1445 54.1037 59.1907 53.7928 59.2825 53.4938L61.7226 45.5376L62.2578 46.9917Z" fill="#466089"/>
<path d="M25.8377 77.651V80.1354H40.2127H54.5877V77.651H40.2127H25.8377Z" fill="#466089"/>
<path d="M38.531 77.651H41.8954V80.1354H38.531V77.651Z" fill="#FFE352"/>
<path d="M47.4886 35.5581L43.5846 41.4143L43.0517 40.6925L42.3611 41.549L43.6282 43.2684L48.5271 35.8672L47.4886 35.5581Z" fill="#D3D3D3"/>
<path d="M32.9367 35.5581L36.8408 41.4143L37.3672 40.6987L38.0255 41.6014L36.7972 43.2684L31.8983 35.8672L32.9367 35.5581Z" fill="#D3D3D3"/>
<path d="M38.6435 45.8272C39.1573 45.8852 39.6807 45.9167 40.2126 45.9167C40.6902 45.9167 41.1605 45.89 41.6237 45.8431L41.4548 42.6567H38.7929L38.6435 45.8272Z" fill="#80D6FB"/>
<path d="M41.0788 43.8987H40.7663C40.7663 42.7794 40.1672 42.4541 40.1416 42.4408L40.2825 42.1619C40.315 42.1781 41.0788 42.5751 41.0788 43.8987Z" fill="#46BEE8"/>
<path d="M39.659 43.8987H39.3465C39.3465 42.5751 40.1103 42.1781 40.1428 42.1619L40.2837 42.4408C40.2581 42.4541 39.659 42.7795 39.659 43.8987Z" fill="#46BEE8"/>
<path d="M35.9542 33.4286L32.9375 35.5581L36.8416 41.4144L38.7977 38.7597C39.143 38.2911 39.6124 37.9281 40.1528 37.7119L40.2133 37.6876L35.9542 33.4286Z" fill="#EDEFF1"/>
<path d="M44.4717 33.4286L47.4886 35.5581L43.5845 41.4144L41.6284 38.7597C41.2831 38.2911 40.8137 37.9281 40.2733 37.7119L40.2128 37.6876L44.4717 33.4286Z" fill="#EDEFF1"/>
<path d="M40.7217 37.6876H39.7035C37.6324 37.6876 35.9535 36.0086 35.9535 33.9376V27.7844H44.4717V33.9376C44.4717 36.0086 42.7928 37.6876 40.7217 37.6876Z" fill="#FFD3B3"/>
<path d="M35.9535 30.0711C37.2557 30.6526 38.6963 30.9788 40.2126 30.9788C41.7288 30.9788 43.1695 30.6527 44.4717 30.0711V27.7844H35.9535V30.0711Z" fill="#FCB98B"/>
<path d="M49.2629 20.5248C49.2629 25.5144 45.2019 29.5592 40.2124 29.5592C35.2229 29.5592 31.1619 25.5144 31.1619 20.5248V11.6356H49.2629V20.5248Z" fill="#FFD3B3"/>
<path d="M38.6502 25.2915H41.7752L41.7586 25.3579C41.5847 26.0535 40.9597 26.5415 40.2428 26.5415H40.1828C39.4658 26.5415 38.8408 26.0535 38.6671 25.3579L38.6502 25.2915Z" fill="#EDEFF1"/>
<path d="M41.0996 22.9295H38.9929L39.2129 20.2921L40.1469 20.3701L40.0119 21.992H41.0996V22.9295Z" fill="#FCB98B"/>
<path d="M38.616 15.8947C38.616 15.8947 35.8358 14.7412 33.4696 16.782C33.4696 16.782 36.2202 16.0722 38.0835 16.9595L38.616 15.8947Z" fill="#23049D"/>
<path d="M36.664 19.6214C37.1541 19.6214 37.5514 19.2241 37.5514 18.734C37.5514 18.244 37.1541 17.8467 36.664 17.8467C36.174 17.8467 35.7767 18.244 35.7767 18.734C35.7767 19.2241 36.174 19.6214 36.664 19.6214Z" fill="#23049D"/>
<path d="M41.5652 16.5904C41.5652 16.5904 43.977 14.7894 46.772 16.1865C46.772 16.1865 43.9312 16.174 42.3429 17.4919L41.5652 16.5904Z" fill="#23049D"/>
<path d="M42.9325 18.9402L42.4621 18.5286C42.5071 18.4771 43.5832 17.2666 45.0602 17.4683L44.9757 18.0875C43.8349 17.9319 42.9414 18.9301 42.9325 18.9402Z" fill="#FCB98B"/>
<path d="M44.1714 19.2377C43.4762 18.9386 42.7511 19.0419 42.7436 19.0432L42.6517 18.4249C42.688 18.4194 43.5615 18.2952 44.4183 18.6635L44.1714 19.2377Z" fill="#FCB98B"/>
<path d="M49.2634 14.5093H49.9297C50.992 14.5093 51.8162 15.4363 51.6922 16.4912L51.4436 18.6041C51.3136 19.7096 50.3765 20.5429 49.2634 20.5429V14.5093Z" fill="#FFD3B3"/>
<path d="M31.1628 14.5093H30.4965C29.4343 14.5093 28.61 15.4363 28.734 16.4912L28.9826 18.6041C29.1126 19.7096 30.0496 20.5429 31.1628 20.5429V14.5093Z" fill="#FFD3B3"/>
<path d="M43.0515 40.6924L41.4547 42.6565H38.7922L37.3672 40.6987L38.7969 38.7596C39.1422 38.2909 39.6109 37.9284 40.1516 37.7112L40.2125 37.6877L40.2734 37.7112C40.8141 37.9284 41.2828 38.2909 41.6281 38.7596L43.0515 40.6924Z" fill="#80D6FB"/>
<path d="M40.2656 42.1227H40.065C39.2655 42.1227 38.5142 41.7403 38.0438 41.0939L37.5631 40.4336L37.3677 40.6988L38.7927 42.6566H41.4552L43.052 40.6925L42.8458 40.4124L42.2056 41.1999C41.7306 41.7838 41.0181 42.1227 40.2656 42.1227Z" fill="#46BEE8"/>
<path d="M48.1821 11.6356V14.8839C48.1821 15.4106 48.4305 15.9101 48.8352 16.2472L49.2758 16.6023V6.37512H42.6977V11.6356H48.1821Z" fill="#466089"/>
<path d="M46.5591 11.6356H32.2439V14.8838C32.2439 15.4106 31.9955 15.9101 31.5908 16.2473L31.1502 16.6024V14.5103H30.5252V8.729V7.32275C30.5252 5.76947 31.7844 4.51025 33.3377 4.51025H33.4693C33.4693 2.95697 34.7285 1.69775 36.2817 1.69775H49.6841C50.547 1.69775 51.2466 2.39729 51.2466 3.26025V6.94807C51.2466 9.53697 49.148 11.6356 46.5591 11.6356Z" fill="#23049D"/>
<path d="M5.8171 12.8748L6.70074 11.9911L9.55857 14.8489L8.67493 15.7326L5.8171 12.8748Z" fill="#23049D"/>
<path d="M6.77518 14.6665H5.52518V11.6978H8.49393V12.9478H6.77518V14.6665Z" fill="#23049D"/>
<path d="M5.81685 25.5171L8.67467 22.6593L9.55842 23.543L6.7006 26.4008L5.81685 25.5171Z" fill="#23049D"/>
<path d="M8.49393 26.6978H5.52518V23.729H6.77518V25.4478H8.49393V26.6978Z" fill="#23049D"/>
<path d="M22.7356 14.8495L25.5935 11.9917L26.4771 12.8753L23.6193 15.7331L22.7356 14.8495Z" fill="#23049D"/>
<path d="M26.7752 14.6665H25.5252V12.9478H23.8064V11.6978H26.7752V14.6665Z" fill="#23049D"/>
<path d="M22.7348 23.5463L23.6185 22.6625L26.4764 25.5203L25.5926 26.4041L22.7348 23.5463Z" fill="#23049D"/>
<path d="M26.7752 26.6978H23.8064V25.4478H25.5252V23.729H26.7752V26.6978Z" fill="#23049D"/>
</g>
<defs>
<clipPath id="clip0_553_316">
<rect width="80" height="80" fill="white" transform="translate(0.181641 0.901855)"/>
</clipPath>
</defs>
</svg>
