<svg width="81" height="81" viewBox="0 0 81 81" fill="none" xmlns="http://www.w3.org/2000/svg">
<g clip-path="url(#clip0_553_298)">
<path d="M72.26 6.24881C71.6648 6.08975 71.2397 5.56534 71.207 4.95064L71.1403 3.66983C71.1049 3.05651 70.6791 2.53488 70.0846 2.37721C69.4907 2.21954 68.8621 2.46195 68.5273 2.97733L67.8314 4.04976C67.4952 4.56792 66.8631 4.81033 66.2672 4.64849L65.0336 4.31718C64.4356 4.15395 63.8007 4.39636 63.4645 4.9166C63.1277 5.43684 63.1659 6.11475 63.5597 6.59332L64.3633 7.58935C64.6641 7.96373 64.7537 8.46522 64.6009 8.92086L72.7865 6.3912L72.26 6.24881Z" fill="#FFE165"/>
<path d="M73.4942 6.57797L72.783 6.38696L64.6008 8.90482C64.5689 9.02359 64.5209 9.1375 64.4591 9.24377L63.7631 10.3148C63.4263 10.8323 63.4617 11.5081 63.8507 11.9881C64.2403 12.4673 64.8946 12.641 65.4704 12.4173L66.6623 11.9589C67.2367 11.7366 67.889 11.9089 68.2779 12.3861L69.0823 13.3814C69.4698 13.8606 70.1213 14.0357 70.6972 13.8148C71.2723 13.5939 71.6404 13.0278 71.6084 12.4124L71.5418 11.1323C71.5091 10.5169 71.8766 9.95086 72.4517 9.72998L73.6443 9.27156C74.2124 9.04582 74.5736 8.48182 74.5396 7.87128C74.5055 7.26005 74.0846 6.73912 73.4942 6.57797Z" fill="#FFD839"/>
<path d="M26.1515 8.05528C26.5453 7.57741 26.5842 6.8988 26.2473 6.37856C25.9104 5.85832 25.2756 5.61591 24.6776 5.77983L18.5979 7.41418C18.4117 7.46002 18.2179 7.46697 18.029 7.43363L9.92604 22.6074L9.84964 24.0973C9.81699 24.7127 10.1844 25.2795 10.7602 25.5004C11.3353 25.7213 11.9883 25.5469 12.3758 25.067L16.3363 20.175C16.7253 19.6985 17.3782 19.5263 17.9519 19.7485L23.8288 22.0032C24.4046 22.2268 25.0589 22.0532 25.4478 21.5739C25.8375 21.0946 25.8729 20.4181 25.5354 19.9007L22.0972 14.6163C21.7617 14.0995 21.7964 13.4251 22.184 12.9458L26.1515 8.05528Z" fill="#AA2EE6"/>
<path d="M17.0357 6.81829L13.608 1.53948C13.2704 1.02896 12.6439 0.792109 12.0535 0.950474C11.4624 1.10884 11.0387 1.627 11.0019 2.23753L10.6657 8.52488C10.6338 9.14097 10.2087 9.66607 9.61342 9.82513L3.53376 11.4511C2.93781 11.6102 2.51203 12.1353 2.48008 12.7507C2.44744 13.3668 2.81556 13.9336 3.39137 14.1538L9.26752 16.4084C9.84264 16.6292 10.2108 17.196 10.1781 17.8114L9.92599 22.6075L18.0234 7.43369C17.6212 7.38021 17.2615 7.15586 17.0357 6.81829Z" fill="#AA2EE6"/>
<path d="M52.8421 31.4655L42.3421 15.2991C41.6712 14.2649 40.4105 13.7808 39.2193 14.0996C38.0281 14.4191 37.1786 15.4686 37.1147 16.7001L36.1062 35.9511C36.0416 37.1812 35.1921 38.2307 34.0023 38.5495L15.382 43.5387C14.1901 43.8568 13.3385 44.9063 13.2739 46.1378C13.2093 47.3693 13.9456 48.5029 15.0972 48.9439L33.0945 55.8515C34.2454 56.2933 34.9816 57.4255 34.9171 58.6569L34.0176 75.795L54.0819 32.4997C53.5763 32.2844 53.1449 31.9246 52.8421 31.4655Z" fill="#FFD839"/>
<path d="M77.5321 32.2143C78.3058 31.2565 78.376 29.9097 77.7057 28.8768C77.0354 27.844 75.7769 27.3592 74.587 27.6766L55.964 32.6651C55.3361 32.8283 54.6713 32.7699 54.0816 32.4998L34.0173 75.7951L33.9041 77.9073C33.8388 79.1388 34.5744 80.2717 35.7253 80.7134C36.8769 81.1545 38.1813 80.8051 38.9565 79.8466L51.0873 64.8658C51.8632 63.908 53.1676 63.5586 54.3178 63.9997L72.3158 70.9087C73.466 71.3525 74.7718 71.0046 75.5483 70.0467C76.3249 69.0889 76.3964 67.74 75.7255 66.7051L65.2241 50.5359C64.5531 49.5024 64.624 48.1535 65.3991 47.1957L77.5321 32.2143Z" fill="#FFCD00"/>
</g>
<defs>
<clipPath id="clip0_553_298">
<rect width="80" height="80" fill="white" transform="translate(0.181641 0.901855)"/>
</clipPath>
</defs>
</svg>
