<svg width="81" height="81" viewBox="0 0 81 81" fill="none" xmlns="http://www.w3.org/2000/svg">
<path d="M40.1823 43.6096C44.865 43.6096 48.661 39.8135 48.661 35.1308C48.661 30.4482 44.865 26.6521 40.1823 26.6521C35.4996 26.6521 31.7035 30.4482 31.7035 35.1308C31.7035 39.8135 35.4996 43.6096 40.1823 43.6096Z" fill="#23049D"/>
<path d="M44.4083 27.7793C45.1252 29.0237 45.5355 30.4668 45.5355 32.0062C45.5355 36.689 41.7393 40.4849 37.0567 40.4849C35.5177 40.4849 34.0742 40.0746 32.8299 39.3577C34.2939 41.899 37.038 43.6099 40.1818 43.6099C44.8646 43.6099 48.6605 39.814 48.6605 35.1312C48.6602 31.9874 46.9496 29.2434 44.4083 27.7793Z" fill="#23049D"/>
<path d="M61.9164 43.6096C66.5991 43.6096 70.3952 39.8135 70.3952 35.1308C70.3952 30.4482 66.5991 26.6521 61.9164 26.6521C57.2337 26.6521 53.4377 30.4482 53.4377 35.1308C53.4377 39.8135 57.2337 43.6096 61.9164 43.6096Z" fill="#F79219"/>
<path d="M66.1431 27.7793C66.8599 29.0237 67.2703 30.4668 67.2703 32.0062C67.2703 36.689 63.474 40.4849 58.7915 40.4849C57.2524 40.4849 55.809 40.0746 54.5646 39.3577C56.0287 41.899 58.7728 43.6099 61.9165 43.6099C66.5993 43.6099 70.3953 39.814 70.3953 35.1312C70.3953 31.9874 68.6843 29.2434 66.1431 27.7793Z" fill="#EF7816"/>
<path d="M18.4472 43.6096C23.1298 43.6096 26.9259 39.8135 26.9259 35.1308C26.9259 30.4482 23.1298 26.6521 18.4472 26.6521C13.7645 26.6521 9.96841 30.4482 9.96841 35.1308C9.96841 39.8135 13.7645 43.6096 18.4472 43.6096Z" fill="#F79219"/>
<path d="M22.6742 27.7793C23.391 29.0237 23.8014 30.4668 23.8014 32.0062C23.8014 36.689 20.0051 40.4849 15.3226 40.4849C13.7835 40.4849 12.3401 40.0746 11.0957 39.3577C12.5598 41.899 15.3039 43.6099 18.4476 43.6099C23.1304 43.6099 26.9264 39.814 26.9264 35.1312C26.9264 31.9874 25.2154 29.2434 22.6742 27.7793Z" fill="#EF7816"/>
<path d="M40.1823 23.4237C44.865 23.4237 48.661 19.6276 48.661 14.9449C48.661 10.2623 44.865 6.46619 40.1823 6.46619C35.4996 6.46619 31.7035 10.2623 31.7035 14.9449C31.7035 19.6276 35.4996 23.4237 40.1823 23.4237Z" fill="#F79219"/>
<path d="M44.4083 7.59338C45.1252 8.83776 45.5355 10.2809 45.5355 11.8203C45.5355 16.5031 41.7393 20.299 37.0567 20.299C35.5177 20.299 34.0742 19.889 32.8299 19.1718C34.2942 21.7131 37.038 23.424 40.1818 23.424C44.8646 23.424 48.6605 19.6278 48.6605 14.9453C48.6602 11.8015 46.9496 9.05745 44.4083 7.59338Z" fill="#EF7816"/>
<path d="M61.9164 23.4237C66.5991 23.4237 70.3952 19.6276 70.3952 14.9449C70.3952 10.2623 66.5991 6.46619 61.9164 6.46619C57.2337 6.46619 53.4377 10.2623 53.4377 14.9449C53.4377 19.6276 57.2337 23.4237 61.9164 23.4237Z" fill="#FFC91D"/>
<path d="M66.1431 7.59338C66.8599 8.83776 67.2703 10.2809 67.2703 11.8203C67.2703 16.5031 63.474 20.299 58.7915 20.299C57.2524 20.299 55.809 19.889 54.5646 19.1718C56.029 21.7131 58.7728 23.424 61.9165 23.424C66.5993 23.424 70.3953 19.6278 70.3953 14.9453C70.3953 11.8015 68.6843 9.05745 66.1431 7.59338Z" fill="#FFA91A"/>
<path d="M18.4472 23.4237C23.1298 23.4237 26.9259 19.6276 26.9259 14.9449C26.9259 10.2623 23.1298 6.46619 18.4472 6.46619C13.7645 6.46619 9.96841 10.2623 9.96841 14.9449C9.96841 19.6276 13.7645 23.4237 18.4472 23.4237Z" fill="#FFC91D"/>
<path d="M22.6742 7.59338C23.391 8.83776 23.8014 10.2809 23.8014 11.8203C23.8014 16.5031 20.0051 20.299 15.3226 20.299C13.7835 20.299 12.3401 19.889 11.0957 19.1718C12.5601 21.7131 15.3039 23.424 18.4476 23.424C23.1304 23.424 26.9264 19.6278 26.9264 14.9453C26.9264 11.8015 25.2154 9.05745 22.6742 7.59338Z" fill="#FFA91A"/>
<path d="M56.6104 47.5424C55.0894 47.5424 53.8597 48.7721 53.8597 50.293V48.9268C53.8575 48.2674 53.6347 47.6677 53.2313 47.178C53.2313 47.1733 53.2313 47.1733 53.2313 47.1733C51.5994 45.2033 48.3657 46.3633 48.3628 48.9268V47.5605C48.2247 43.9358 43.0203 43.9011 42.866 47.5605V35.378C42.6988 31.6999 37.4878 31.738 37.3691 35.4752V54.7939C37.3691 55.1008 37.0719 55.3199 36.7788 55.2289L30.7972 53.3761C27.2056 52.3821 25.4119 57.3627 28.7978 58.8914L28.7797 58.9005C28.7797 58.9005 39.5869 63.6733 39.5275 66.3649H57.9219V64.9077C57.9219 64.0652 58.1679 63.2408 58.6369 62.5349C59.106 61.8336 59.3566 61.0093 59.3566 60.1621V50.293C59.3566 48.7718 58.1269 47.5424 56.6104 47.5424Z" fill="#FCC4AE"/>
<path d="M56.6099 47.5424C56.4812 47.5424 56.3553 47.5542 56.2312 47.5714V57.037C56.2312 57.8839 55.9806 58.7083 55.5115 59.4099C55.0424 60.1158 54.7965 60.9399 54.7965 61.7827V63.2399H36.7734C38.3612 64.3436 39.5468 65.4695 39.5271 66.3649H57.9215V64.9077C57.9215 64.0652 58.1674 63.2408 58.6365 62.5349C59.1056 61.8336 59.3562 61.0092 59.3562 60.162V50.293C59.3562 48.7717 58.1265 47.5424 56.6099 47.5424Z" fill="#F2AD97"/>
<path d="M27.2346 57.3536C27.2249 57.3493 27.2167 57.3441 27.207 57.3396C27.2101 57.3472 27.2137 57.3548 27.217 57.3623L27.2346 57.3536Z" fill="#F79219"/>
<path d="M40.434 66.3628H39.5256C39.4978 67.6344 39.9497 67.1875 40.434 66.3628Z" fill="#F7CB15"/>
<path d="M60.3806 68.1893V75.6793C60.3806 76.688 59.5628 77.5062 58.5537 77.5062H38.8543C37.8453 77.5062 37.0275 76.6884 37.0275 75.6793V68.1893C37.0275 67.1802 37.8453 66.3624 38.8543 66.3624H58.5537C59.5625 66.3627 60.3806 67.1806 60.3806 68.1893Z" fill="#808285"/>
<path d="M38.9032 73.3893C38.5591 73.3893 38.2782 73.1111 38.2782 72.7643C38.2782 72.4205 38.5591 72.1393 38.9032 72.1393C39.2469 72.1393 39.5282 72.4205 39.5282 72.7643C39.5282 73.1111 39.2469 73.3893 38.9032 73.3893ZM38.9032 70.8893C38.5591 70.8893 38.2782 70.6111 38.2782 70.2643V68.2361C38.2782 68.0736 38.3438 67.9111 38.4626 67.7955C38.5782 67.6799 38.7376 67.6143 38.9032 67.6143H54.6719C55.0157 67.6143 55.2969 67.8924 55.2969 68.2361C55.2969 68.583 55.0157 68.8611 54.6719 68.8611H39.5282V70.2643C39.5282 70.6111 39.2469 70.8893 38.9032 70.8893Z" fill="#939598"/>
<path d="M58.5538 66.3628H57.2556V72.5547C57.2556 73.5637 56.4378 74.3815 55.4288 74.3815H37.0278V75.6797C37.0278 76.6887 37.8456 77.5065 38.8547 77.5065H58.5541C59.5628 77.5065 60.3809 76.6887 60.3809 75.6797V68.1894C60.3806 67.1806 59.5625 66.3628 58.5538 66.3628Z" fill="#58595B"/>
<path d="M58.8005 66.3811C58.8114 66.4617 58.8189 66.5433 58.8189 66.627V74.117C58.8189 75.1261 58.0011 75.9439 56.9921 75.9439H37.2927C37.2089 75.9439 37.1274 75.9364 37.0467 75.9255C37.1671 76.818 37.9299 77.5064 38.8552 77.5064H58.5546C59.5633 77.5064 60.3814 76.6886 60.3814 75.6795V68.1892C60.3814 67.2639 59.6927 66.5014 58.8005 66.3811Z" fill="#414042"/>
</svg>
