<svg width="25" height="24" viewBox="0 0 25 24" fill="none" xmlns="http://www.w3.org/2000/svg">
<g clip-path="url(#clip0_554_516)">
<path d="M1.68166 1.63299C-0.204343 3.59199 0.181657 5.67299 0.181657 11.995C0.181657 17.245 -0.734343 22.508 4.05966 23.747C5.55666 24.132 18.8207 24.132 20.3157 23.745C22.3117 23.23 23.9357 21.611 24.1577 18.788C24.1887 18.394 24.1887 5.60299 24.1567 5.20099C23.9207 2.19399 22.0697 0.460985 19.6307 0.109985C19.0717 0.0289854 18.9597 0.00498537 16.0917 -1.46367e-05C5.91866 0.00498537 3.68866 -0.448015 1.68166 1.63299Z" fill="url(#paint0_linear_554_516)"/>
<path d="M12.1796 3.13905C8.54864 3.13905 5.10064 2.81605 3.78364 6.19605C3.23964 7.59205 3.31864 9.40505 3.31864 12.001C3.31864 14.279 3.24564 16.42 3.78364 17.805C5.09764 21.187 8.57364 20.8631 12.1776 20.8631C15.6546 20.8631 19.2396 21.225 20.5726 17.805C21.1176 16.395 21.0376 14.609 21.0376 12.001C21.0376 8.53905 21.2286 6.30405 19.5496 4.62605C17.8496 2.92605 15.5506 3.13905 12.1756 3.13905H12.1796ZM11.3856 4.73605C18.9596 4.72405 19.9236 3.88205 19.3916 15.579C19.2026 19.7161 16.0526 19.262 12.1806 19.262C5.12064 19.262 4.91764 19.06 4.91764 11.997C4.91764 4.85205 5.47764 4.74005 11.3856 4.73405V4.73605ZM16.9096 6.20705C16.3226 6.20705 15.8466 6.68305 15.8466 7.27005C15.8466 7.85705 16.3226 8.33305 16.9096 8.33305C17.4966 8.33305 17.9726 7.85705 17.9726 7.27005C17.9726 6.68305 17.4966 6.20705 16.9096 6.20705ZM12.1796 7.45005C9.66664 7.45005 7.62964 9.48805 7.62964 12.001C7.62964 14.514 9.66664 16.551 12.1796 16.551C14.6926 16.551 16.7286 14.514 16.7286 12.001C16.7286 9.48805 14.6926 7.45005 12.1796 7.45005ZM12.1796 9.04705C16.0846 9.04705 16.0896 14.955 12.1796 14.955C8.27564 14.955 8.26964 9.04705 12.1796 9.04705Z" fill="white"/>
</g>
<defs>
<linearGradient id="paint0_linear_554_516" x1="1.72768" y1="22.4671" x2="24.0331" y2="3.16196" gradientUnits="userSpaceOnUse">
<stop stop-color="#FFDD55"/>
<stop offset="0.5" stop-color="#FF543E"/>
<stop offset="1" stop-color="#C837AB"/>
</linearGradient>
<clipPath id="clip0_554_516">
<rect width="24" height="24" fill="white" transform="translate(0.181641)"/>
</clipPath>
</defs>
</svg>
